<svg class="animated" id="freepik_stories-work-in-progress" xmlns="http://www.w3.org/2000/svg" viewBox="0 0 500 500" version="1.1" xmlns:xlink="http://www.w3.org/1999/xlink" xmlns:svgjs="http://svgjs.com/svgjs"><g id="freepik--background-complete--inject-124" class="animable animator-hidden" style="transform-origin: 250px 228.23px;"><rect y="382.4" width="500" height="0.25" style="fill: rgb(235, 235, 235); transform-origin: 250px 382.525px;" id="ely00nrl0rdp" class="animable"></rect><rect x="416.78" y="398.49" width="33.12" height="0.25" style="fill: rgb(235, 235, 235); transform-origin: 433.34px 398.615px;" id="elw8hjyum9ky" class="animable"></rect><rect x="322.53" y="401.21" width="8.69" height="0.25" style="fill: rgb(235, 235, 235); transform-origin: 326.875px 401.335px;" id="elft537ihb5zw" class="animable"></rect><rect x="396.59" y="389.21" width="19.19" height="0.25" style="fill: rgb(235, 235, 235); transform-origin: 406.185px 389.335px;" id="elfyy0lb98qef" class="animable"></rect><rect x="52.46" y="390.89" width="43.19" height="0.25" style="fill: rgb(235, 235, 235); transform-origin: 74.055px 391.015px;" id="eluocb7wv63np" class="animable"></rect><rect x="104.56" y="390.89" width="6.33" height="0.25" style="fill: rgb(235, 235, 235); transform-origin: 107.725px 391.015px;" id="elihe191i5m8" class="animable"></rect><rect x="131.47" y="395.11" width="93.68" height="0.25" style="fill: rgb(235, 235, 235); transform-origin: 178.31px 395.235px;" id="eloic6xkhpzgg" class="animable"></rect><path d="M237,337.8H43.91a5.71,5.71,0,0,1-5.7-5.71V60.66A5.71,5.71,0,0,1,43.91,55H237a5.71,5.71,0,0,1,5.71,5.71V332.09A5.71,5.71,0,0,1,237,337.8ZM43.91,55.2a5.46,5.46,0,0,0-5.45,5.46V332.09a5.46,5.46,0,0,0,5.45,5.46H237a5.47,5.47,0,0,0,5.46-5.46V60.66A5.47,5.47,0,0,0,237,55.2Z" style="fill: rgb(235, 235, 235); transform-origin: 140.46px 196.4px;" id="elwlsv4yun62" class="animable"></path><path d="M453.31,337.8H260.21a5.72,5.72,0,0,1-5.71-5.71V60.66A5.72,5.72,0,0,1,260.21,55h193.1A5.71,5.71,0,0,1,459,60.66V332.09A5.71,5.71,0,0,1,453.31,337.8ZM260.21,55.2a5.47,5.47,0,0,0-5.46,5.46V332.09a5.47,5.47,0,0,0,5.46,5.46h193.1a5.47,5.47,0,0,0,5.46-5.46V60.66a5.47,5.47,0,0,0-5.46-5.46Z" style="fill: rgb(235, 235, 235); transform-origin: 356.75px 196.4px;" id="el754ljpagggb" class="animable"></path><g id="elafxo8mw00u"><rect x="85.99" y="74.96" width="125.56" height="161.58" style="fill: rgb(224, 224, 224); transform-origin: 148.77px 155.75px; transform: rotate(90deg);" class="animable" id="elnicc01f6se"></rect></g><g id="el12xwtlbng9al"><rect x="70.22" y="95.21" width="157.1" height="121.08" style="fill: rgb(235, 235, 235); transform-origin: 148.77px 155.75px; transform: rotate(180deg);" class="animable" id="elrijib6p1pxc"></rect></g><rect x="145.63" y="117.08" width="1" height="16.88" style="fill: rgb(224, 224, 224); transform-origin: 146.13px 125.52px;" id="elfvpdiweqnmr" class="animable"></rect><polygon points="108.24 188.32 107.24 188.32 107.24 133.47 179.5 133.47 179.5 165.15 178.5 165.15 178.5 134.47 108.24 134.47 108.24 188.32" style="fill: rgb(224, 224, 224); transform-origin: 143.37px 160.895px;" id="ellohouo4zc58" class="animable"></polygon><polygon points="200.24 182.32 199.24 182.32 199.24 165.65 161.07 165.65 161.07 181.74 160.07 181.74 160.07 164.65 200.24 164.65 200.24 182.32" style="fill: rgb(224, 224, 224); transform-origin: 180.155px 173.485px;" id="el41kkz87n7bq" class="animable"></polygon><rect x="128.11" y="110.88" width="36.04" height="12.41" style="fill: rgb(245, 245, 245); transform-origin: 146.13px 117.085px;" id="eld9z6fwsvyoe" class="animable"></rect><rect x="162.36" y="140.65" width="34.35" height="13.48" style="fill: rgb(245, 245, 245); transform-origin: 179.535px 147.39px;" id="el15mwbh8figu" class="animable"></rect><rect x="148.77" y="174.79" width="23.59" height="13.9" style="fill: rgb(245, 245, 245); transform-origin: 160.565px 181.74px;" id="el76x75iip1fe" class="animable"></rect><rect x="187.11" y="177.04" width="25.27" height="10.56" style="fill: rgb(245, 245, 245); transform-origin: 199.745px 182.32px;" id="elq6sasqdf96" class="animable"></rect><rect x="91.16" y="143.5" width="39.03" height="18.01" style="fill: rgb(245, 245, 245); transform-origin: 110.675px 152.505px;" id="elgxxsyc2dce" class="animable"></rect><rect x="95.28" y="181.74" width="24.92" height="13.16" style="fill: rgb(245, 245, 245); transform-origin: 107.74px 188.32px;" id="elkjbpjzwcsx" class="animable"></rect><g id="elzqpj8h2zrj"><rect x="142.33" y="130.6" width="7.61" height="7.61" style="fill: rgb(245, 245, 245); transform-origin: 146.135px 134.405px; transform: rotate(45deg);" class="animable" id="ellkfoc3j8el"></rect></g><g id="elb1b4zgx0yz"><rect x="175.2" y="161.34" width="7.61" height="7.61" style="fill: rgb(245, 245, 245); transform-origin: 179.005px 165.145px; transform: rotate(45deg);" class="animable" id="el608lrqglmk4"></rect></g><rect x="295.37" y="114.12" width="99.59" height="5.12" style="fill: rgb(224, 224, 224); transform-origin: 345.165px 116.68px;" id="elkgp4vnc7tza" class="animable"></rect><rect x="299.95" y="95.26" width="4.39" height="18.86" style="fill: rgb(235, 235, 235); transform-origin: 302.145px 104.69px;" id="el9a6k7gfleyq" class="animable"></rect><rect x="321.17" y="95.26" width="4.39" height="18.86" style="fill: rgb(235, 235, 235); transform-origin: 323.365px 104.69px;" id="elsg6sb00joh" class="animable"></rect><g id="elqsri9knqn2"><rect x="346.89" y="95.02" width="4.39" height="18.86" style="fill: rgb(235, 235, 235); transform-origin: 349.085px 104.45px; transform: rotate(-9.78deg);" class="animable" id="elz8zrkx2hqhr"></rect></g><rect x="305.39" y="97.74" width="4.39" height="16.38" style="fill: rgb(235, 235, 235); transform-origin: 307.585px 105.93px;" id="elx46nrwx51qi" class="animable"></rect><rect x="315.47" y="97.74" width="4.39" height="16.38" style="fill: rgb(235, 235, 235); transform-origin: 317.665px 105.93px;" id="elrdke5cocog" class="animable"></rect><rect x="340.93" y="97.74" width="4.39" height="16.38" style="fill: rgb(235, 235, 235); transform-origin: 343.125px 105.93px;" id="elve91ignxdxi" class="animable"></rect><g id="el90nrmza8duh"><rect x="328.76" y="97.46" width="4.39" height="16.38" style="fill: rgb(235, 235, 235); transform-origin: 330.955px 105.65px; transform: rotate(-12.53deg);" class="animable" id="eltq86l1bv7lq"></rect></g><rect x="311.38" y="94.32" width="2.19" height="19.8" style="fill: rgb(235, 235, 235); transform-origin: 312.475px 104.22px;" id="elvykbpk2c6ut" class="animable"></rect><rect x="337.47" y="94.32" width="2.19" height="19.8" style="fill: rgb(235, 235, 235); transform-origin: 338.565px 104.22px;" id="el3rpapee3fl3" class="animable"></rect><rect x="364.03" y="99.19" width="21.38" height="14.76" style="fill: rgb(235, 235, 235); transform-origin: 374.72px 106.57px;" id="el8dbleht9kiu" class="animable"></rect><g id="el5pr6rkqzvpx"><rect x="295.37" y="152.32" width="99.59" height="5.12" style="fill: rgb(224, 224, 224); transform-origin: 345.165px 154.88px; transform: rotate(180deg);" class="animable" id="elorwj8omza4a"></rect></g><g id="el75vb5ttzcu9"><rect x="385.99" y="133.46" width="4.39" height="18.86" style="fill: rgb(235, 235, 235); transform-origin: 388.185px 142.89px; transform: rotate(180deg);" class="animable" id="el3uhbik69jpo"></rect></g><g id="elez9scuv8nj5"><rect x="364.77" y="133.46" width="4.39" height="18.86" style="fill: rgb(235, 235, 235); transform-origin: 366.965px 142.89px; transform: rotate(180deg);" class="animable" id="elycvzo3ri86o"></rect></g><g id="elsznq9hombx"><rect x="339.05" y="133.22" width="4.39" height="18.86" style="fill: rgb(235, 235, 235); transform-origin: 341.245px 142.65px; transform: rotate(-170.22deg);" class="animable" id="elgsswz6fingi"></rect></g><g id="elxj3iwoglv7m"><rect x="380.55" y="135.94" width="4.39" height="16.38" style="fill: rgb(235, 235, 235); transform-origin: 382.745px 144.13px; transform: rotate(180deg);" class="animable" id="eloelsbgwerl"></rect></g><g id="el3lx3jvn5nu3"><rect x="370.47" y="135.94" width="4.39" height="16.38" style="fill: rgb(235, 235, 235); transform-origin: 372.665px 144.13px; transform: rotate(180deg);" class="animable" id="elh3t9vnhvun"></rect></g><g id="elm62uuwkisl9"><rect x="345.01" y="135.94" width="4.39" height="16.38" style="fill: rgb(235, 235, 235); transform-origin: 347.205px 144.13px; transform: rotate(180deg);" class="animable" id="elze3bew9iphk"></rect></g><g id="el6emjn8folfd"><rect x="357.18" y="135.66" width="4.39" height="16.38" style="fill: rgb(235, 235, 235); transform-origin: 359.375px 143.85px; transform: rotate(-167.47deg);" class="animable" id="el9p70dsqxds"></rect></g><g id="elt35icovikze"><rect x="376.76" y="132.52" width="2.19" height="19.8" style="fill: rgb(235, 235, 235); transform-origin: 377.855px 142.42px; transform: rotate(180deg);" class="animable" id="eld9nx6wadig4"></rect></g><g id="el4ya0ceb69dy"><rect x="350.66" y="132.52" width="2.19" height="19.8" style="fill: rgb(235, 235, 235); transform-origin: 351.755px 142.42px; transform: rotate(180deg);" class="animable" id="elags2eura7fk"></rect></g><g id="elbcq0e0fs67n"><rect x="304.92" y="137.39" width="21.38" height="14.76" style="fill: rgb(235, 235, 235); transform-origin: 315.61px 144.77px; transform: rotate(180deg);" class="animable" id="elmrqakcjqbvc"></rect></g><rect x="317.29" y="182.53" width="55.86" height="199.14" style="fill: rgb(245, 245, 245); transform-origin: 345.22px 282.1px;" id="elxerrnciekt" class="animable"></rect><rect x="322.11" y="188.21" width="46.22" height="188.94" style="fill: rgb(235, 235, 235); transform-origin: 345.22px 282.68px;" id="elfgsyuz0u2xa" class="animable"></rect><rect x="330.52" y="193.77" width="29.39" height="1.95" style="fill: rgb(224, 224, 224); transform-origin: 345.215px 194.745px;" id="el61zfd86q91" class="animable"></rect><rect x="330.52" y="202.18" width="29.39" height="1.95" style="fill: rgb(224, 224, 224); transform-origin: 345.215px 203.155px;" id="elq4qoph0jig" class="animable"></rect><rect x="330.52" y="210.6" width="29.39" height="1.95" style="fill: rgb(224, 224, 224); transform-origin: 345.215px 211.575px;" id="elc6wnbdolqjk" class="animable"></rect><rect x="330.52" y="219.02" width="29.39" height="1.95" style="fill: rgb(224, 224, 224); transform-origin: 345.215px 219.995px;" id="elxlz091q5fqb" class="animable"></rect><rect x="330.52" y="227.44" width="29.39" height="1.95" style="fill: rgb(224, 224, 224); transform-origin: 345.215px 228.415px;" id="elvbg3whksn3k" class="animable"></rect><rect x="330.52" y="235.85" width="29.39" height="1.95" style="fill: rgb(224, 224, 224); transform-origin: 345.215px 236.825px;" id="el1tm1yekd2ev" class="animable"></rect><rect x="330.52" y="244.27" width="29.39" height="1.95" style="fill: rgb(224, 224, 224); transform-origin: 345.215px 245.245px;" id="el9kzwlyio78t" class="animable"></rect><rect x="330.52" y="312.73" width="29.39" height="1.95" style="fill: rgb(224, 224, 224); transform-origin: 345.215px 313.705px;" id="elyd93oau79rg" class="animable"></rect><rect x="330.52" y="321.15" width="29.39" height="1.95" style="fill: rgb(224, 224, 224); transform-origin: 345.215px 322.125px;" id="elp0dlcxq0zqb" class="animable"></rect><rect x="330.52" y="329.57" width="29.39" height="1.95" style="fill: rgb(224, 224, 224); transform-origin: 345.215px 330.545px;" id="elvru3zyx6hhn" class="animable"></rect><rect x="330.52" y="337.98" width="29.39" height="1.95" style="fill: rgb(224, 224, 224); transform-origin: 345.215px 338.955px;" id="elkh8qssx0iqh" class="animable"></rect><rect x="330.52" y="346.4" width="29.39" height="1.95" style="fill: rgb(224, 224, 224); transform-origin: 345.215px 347.375px;" id="elekva8g4syvj" class="animable"></rect><rect x="330.52" y="354.82" width="29.39" height="1.95" style="fill: rgb(224, 224, 224); transform-origin: 345.215px 355.795px;" id="elz84lo1ywp0n" class="animable"></rect><rect x="330.52" y="363.24" width="29.39" height="1.95" style="fill: rgb(224, 224, 224); transform-origin: 345.215px 364.215px;" id="elgoezfgbxmc7" class="animable"></rect><path d="M361.36,273.09a3.25,3.25,0,1,1-3.25-3.25A3.24,3.24,0,0,1,361.36,273.09Z" style="fill: rgb(224, 224, 224); transform-origin: 358.11px 273.09px;" id="el0lex0bjeriiq" class="animable"></path><rect x="259.79" y="182.53" width="55.86" height="199.14" style="fill: rgb(245, 245, 245); transform-origin: 287.72px 282.1px;" id="elmc3ik20efo" class="animable"></rect><rect x="264.61" y="188.21" width="46.22" height="188.94" style="fill: rgb(235, 235, 235); transform-origin: 287.72px 282.68px;" id="elh71gn7mb6wb" class="animable"></rect><rect x="273.02" y="193.77" width="29.39" height="1.95" style="fill: rgb(224, 224, 224); transform-origin: 287.715px 194.745px;" id="elcb6gqxjsv5a" class="animable"></rect><rect x="273.02" y="202.18" width="29.39" height="1.95" style="fill: rgb(224, 224, 224); transform-origin: 287.715px 203.155px;" id="elo386k0cg03" class="animable"></rect><rect x="273.02" y="210.6" width="29.39" height="1.95" style="fill: rgb(224, 224, 224); transform-origin: 287.715px 211.575px;" id="elabz4gwbk1e" class="animable"></rect><rect x="273.02" y="219.02" width="29.39" height="1.95" style="fill: rgb(224, 224, 224); transform-origin: 287.715px 219.995px;" id="elu0bcyymbkvf" class="animable"></rect><rect x="273.02" y="227.44" width="29.39" height="1.95" style="fill: rgb(224, 224, 224); transform-origin: 287.715px 228.415px;" id="eldqk3wpeybzb" class="animable"></rect><rect x="273.02" y="235.85" width="29.39" height="1.95" style="fill: rgb(224, 224, 224); transform-origin: 287.715px 236.825px;" id="eltyhvy1yiocl" class="animable"></rect><rect x="273.02" y="244.27" width="29.39" height="1.95" style="fill: rgb(224, 224, 224); transform-origin: 287.715px 245.245px;" id="elwqz2eu0mk4" class="animable"></rect><rect x="273.02" y="312.73" width="29.39" height="1.95" style="fill: rgb(224, 224, 224); transform-origin: 287.715px 313.705px;" id="elhcfisy05btm" class="animable"></rect><rect x="273.02" y="321.15" width="29.39" height="1.95" style="fill: rgb(224, 224, 224); transform-origin: 287.715px 322.125px;" id="eljuhglumor8" class="animable"></rect><rect x="273.02" y="329.57" width="29.39" height="1.95" style="fill: rgb(224, 224, 224); transform-origin: 287.715px 330.545px;" id="el8m41gie8lg" class="animable"></rect><rect x="273.02" y="337.98" width="29.39" height="1.95" style="fill: rgb(224, 224, 224); transform-origin: 287.715px 338.955px;" id="elneyleblk5ti" class="animable"></rect><rect x="273.02" y="346.4" width="29.39" height="1.95" style="fill: rgb(224, 224, 224); transform-origin: 287.715px 347.375px;" id="elbfixhwfrih" class="animable"></rect><rect x="273.02" y="354.82" width="29.39" height="1.95" style="fill: rgb(224, 224, 224); transform-origin: 287.715px 355.795px;" id="el4rn2nr1u5cr" class="animable"></rect><rect x="273.02" y="363.24" width="29.39" height="1.95" style="fill: rgb(224, 224, 224); transform-origin: 287.715px 364.215px;" id="elunuf96jlpfg" class="animable"></rect><path d="M303.86,273.09a3.25,3.25,0,1,1-3.25-3.25A3.24,3.24,0,0,1,303.86,273.09Z" style="fill: rgb(224, 224, 224); transform-origin: 300.61px 273.09px;" id="el5h7sull0vvu" class="animable"></path><rect x="374.79" y="182.53" width="55.86" height="199.14" style="fill: rgb(245, 245, 245); transform-origin: 402.72px 282.1px;" id="el2rzv5jyc6rh" class="animable"></rect><rect x="379.61" y="188.21" width="46.22" height="188.94" style="fill: rgb(235, 235, 235); transform-origin: 402.72px 282.68px;" id="ele9h4mhw2n5k" class="animable"></rect><rect x="388.02" y="193.77" width="29.39" height="1.95" style="fill: rgb(224, 224, 224); transform-origin: 402.715px 194.745px;" id="elil830i86v4j" class="animable"></rect><rect x="388.02" y="202.18" width="29.39" height="1.95" style="fill: rgb(224, 224, 224); transform-origin: 402.715px 203.155px;" id="elwq4z4j2sxnc" class="animable"></rect><rect x="388.02" y="210.6" width="29.39" height="1.95" style="fill: rgb(224, 224, 224); transform-origin: 402.715px 211.575px;" id="elzgozoydjoz" class="animable"></rect><rect x="388.02" y="219.02" width="29.39" height="1.95" style="fill: rgb(224, 224, 224); transform-origin: 402.715px 219.995px;" id="els7p4g2mu78i" class="animable"></rect><rect x="388.02" y="227.44" width="29.39" height="1.95" style="fill: rgb(224, 224, 224); transform-origin: 402.715px 228.415px;" id="elp4vzt13du9" class="animable"></rect><rect x="388.02" y="235.85" width="29.39" height="1.95" style="fill: rgb(224, 224, 224); transform-origin: 402.715px 236.825px;" id="elwk5bhg9a3vi" class="animable"></rect><rect x="388.02" y="244.27" width="29.39" height="1.95" style="fill: rgb(224, 224, 224); transform-origin: 402.715px 245.245px;" id="els7rxb7fo2op" class="animable"></rect><rect x="388.02" y="312.73" width="29.39" height="1.95" style="fill: rgb(224, 224, 224); transform-origin: 402.715px 313.705px;" id="elmjlrnodn60n" class="animable"></rect><rect x="388.02" y="321.15" width="29.39" height="1.95" style="fill: rgb(224, 224, 224); transform-origin: 402.715px 322.125px;" id="elh8krq96tnv" class="animable"></rect><rect x="388.02" y="329.57" width="29.39" height="1.95" style="fill: rgb(224, 224, 224); transform-origin: 402.715px 330.545px;" id="el8i64bfo7a7y" class="animable"></rect><rect x="388.02" y="337.98" width="29.39" height="1.95" style="fill: rgb(224, 224, 224); transform-origin: 402.715px 338.955px;" id="el82rfbbh9dex" class="animable"></rect><rect x="388.02" y="346.4" width="29.39" height="1.95" style="fill: rgb(224, 224, 224); transform-origin: 402.715px 347.375px;" id="elkeh6x7cp0sk" class="animable"></rect><rect x="388.02" y="354.82" width="29.39" height="1.95" style="fill: rgb(224, 224, 224); transform-origin: 402.715px 355.795px;" id="el7fg7v1ozpz" class="animable"></rect><rect x="388.02" y="363.24" width="29.39" height="1.95" style="fill: rgb(224, 224, 224); transform-origin: 402.715px 364.215px;" id="elzo473jz4ty" class="animable"></rect><path d="M418.86,273.09a3.25,3.25,0,1,1-3.25-3.25A3.24,3.24,0,0,1,418.86,273.09Z" style="fill: rgb(224, 224, 224); transform-origin: 415.61px 273.09px;" id="elpq2nrnlnnk" class="animable"></path></g><g id="freepik--Shadow--inject-124" class="animable" style="transform-origin: 250px 416.24px;"><ellipse id="freepik--path--inject-124" cx="250" cy="416.24" rx="193.89" ry="11.32" style="fill: rgb(245, 245, 245); transform-origin: 250px 416.24px;" class="animable"></ellipse></g><g id="freepik--Plant--inject-124" class="animable" style="transform-origin: 93.0656px 356.441px;"><path d="M93.91,402.73s-5.27-24.89,4.32-38.37-8.66-.15-10.76,12.47c0,0-3.15-22.57,6.15-38.44s-8.1-2.84-9.58,13.51c0,0-2.85-20.12,1.43-31.44s-3.17-4-6,3.06.89,24.65.89,24.65-7.46-32.47-14.52-29.89,10.55,23.86,13,34.92c0,0-8.33-14.89-14.65-11.79s9.79,4.64,17.16,26.85l2.59,10.41S76.26,364,71.25,368.61s14.85,12.64,19.47,34.91Z" style="fill: #2C57B6; transform-origin: 81.8741px 359.056px;" id="elcqkqbs835g4" class="animable"></path><path d="M92.88,404.16s-1.11-31.38-16.61-44.66,10.33-2.77,16.61,11.72c0,0-2.95-28-18.83-44.21s8.86-5.81,15.51,13.34c0,0-2.59-25-11.08-37.23s2.59-5.78,8.12,1.86,6.28,29.79,6.28,29.79-.74-41.11,8.49-40.12-5.54,31.72-5.17,45.7c0,0,5.54-20.32,14-18.49s-10.34,8.48-12.55,37.27v13.24s4.8-19.89,12.18-15.83-14,19.57-12.92,47.62Z" style="fill: #2C57B6; transform-origin: 90.5985px 349.396px;" id="elu7jfc017zo" class="animable"></path><g id="eljufaw9tqfmo"><path d="M92.88,404.16s-1.11-31.38-16.61-44.66,10.33-2.77,16.61,11.72c0,0-2.95-28-18.83-44.21s8.86-5.81,15.51,13.34c0,0-2.59-25-11.08-37.23s2.59-5.78,8.12,1.86,6.28,29.79,6.28,29.79-.74-41.11,8.49-40.12-5.54,31.72-5.17,45.7c0,0,5.54-20.32,14-18.49s-10.34,8.48-12.55,37.27v13.24s4.8-19.89,12.18-15.83-14,19.57-12.92,47.62Z" style="fill: rgb(255, 255, 255); opacity: 0.2; isolation: isolate; transform-origin: 90.5985px 349.396px;" class="animable" id="elupjkfylxve"></path></g><path d="M71.83,402.33h45.58a0,0,0,0,1,0,0v4.92a11,11,0,0,1-11,11H82.83a11,11,0,0,1-11-11v-4.92A0,0,0,0,1,71.83,402.33Z" style="fill: rgb(38, 50, 56); transform-origin: 94.62px 410.29px;" id="el2o65mshe5vg" class="animable"></path><path d="M65.86,399.7v3.48a4.22,4.22,0,0,0,4.22,4.21h49.09a4.21,4.21,0,0,0,4.21-4.21V399.7Z" style="fill: rgb(38, 50, 56); transform-origin: 94.62px 403.545px;" id="elmpif88ug9fe" class="animable"></path><g id="el4ofox75k8fw"><path d="M65.86,399.7v3.48a4.22,4.22,0,0,0,4.22,4.21h49.09a4.21,4.21,0,0,0,4.21-4.21V399.7Z" style="fill: rgb(255, 255, 255); opacity: 0.2; isolation: isolate; transform-origin: 94.62px 403.545px;" class="animable" id="elfo7wyakuqv7"></path></g></g><g id="freepik--trash-bin--inject-124" class="animable" style="transform-origin: 405.79px 396.34px;"><path d="M419.41,398.7a2.35,2.35,0,0,0-1.88-3.37,5,5,0,0,0-1.59-5.48,1.18,1.18,0,0,0-.69-.31,1.31,1.31,0,0,0-.74.33l-4.4,3.15a2.68,2.68,0,0,0-.87.87c-.9,1.74,2.34,4,1,5.4-.38.41-1,.5-1.48.8-1,.65-1.17,2.09-1.66,3.22s-2.18,2-2.83,1c.48-1.08-1-2-2.16-2.16s-2.41-.2-3.06-1.31c-1.67,1.47-5.42-2.62-5.34-4.26a3.22,3.22,0,0,0-2.61,2.68,19.34,19.34,0,0,0-.14,4.1c0,2.67-.9,5.28-.86,7.94,0,2.08.84,4.38,2.74,5.21a7,7,0,0,0,2.94.4l21.62-.14a3.25,3.25,0,0,0,1.52-.25c1-.51,1.19-1.79,1.28-2.89q.57-7.05,1.16-14.09Z" style="fill: #2C57B6; transform-origin: 405.729px 403.236px;" id="elhcbozmqkal" class="animable"></path><g id="eliaubm85ie8"><path d="M419.41,398.7a2.35,2.35,0,0,0-1.88-3.37,5,5,0,0,0-1.59-5.48,1.18,1.18,0,0,0-.69-.31,1.31,1.31,0,0,0-.74.33l-4.4,3.15a2.68,2.68,0,0,0-.87.87c-.9,1.74,2.34,4,1,5.4-.38.41-1,.5-1.48.8-1,.65-1.17,2.09-1.66,3.22s-2.18,2-2.83,1c.48-1.08-1-2-2.16-2.16s-2.41-.2-3.06-1.31c-1.67,1.47-5.42-2.62-5.34-4.26a3.22,3.22,0,0,0-2.61,2.68,19.34,19.34,0,0,0-.14,4.1c0,2.67-.9,5.28-.86,7.94,0,2.08.84,4.38,2.74,5.21a7,7,0,0,0,2.94.4l21.62-.14a3.25,3.25,0,0,0,1.52-.25c1-.51,1.19-1.79,1.28-2.89q.57-7.05,1.16-14.09Z" style="fill: rgb(255, 255, 255); opacity: 0.3; isolation: isolate; transform-origin: 405.729px 403.236px;" class="animable" id="el6bsvi6iwiaa"></path></g><path d="M420.67,375.85H387.13l.27,3.39.2,2.42.51,6.3.29,3.61.39,4.82.16,2.06.06.62.2,2.43.26,3.32.17,2.07.17,2.1.2,2.42.15,1.84.17,2.07.07.89h30.79l.07-.89.16-2.06.15-1.85.2-2.43.17-2.09.17-2.07.27-3.33.19-2.42.05-.62.17-2.06.39-4.82.29-3.61.51-6.3.19-2.42.28-3.39Zm2,2.22h0l-.65-.65h.71Zm-.16,2.06-.07.82-3,3L416,380.51l3.09-3.09h.72Zm-.87,10.73-2.2,2.2L416,389.62l3.45-3.44,2.38,2.38Zm-31.92-2.3h0l2.38-2.38,3.44,3.44-3.44,3.44-2.2-2.2Zm28.61-3.5-3.45,3.45-3.44-3.45,3.44-3.44Zm-5.42-7.64h3.94l-2,2Zm.85,12.2-3.43,3.44-3.45-3.44,3.45-3.44Zm-11.43,4.55,3.44-3.43,3.44,3.43-3.44,3.45Zm2.32,4.56-3.44,3.45-3.44-3.44,3.45-3.45Zm5.68-3.44,3.43,3.45-3.43,3.44-3.45-3.45Zm-4.56-6.78-3.44-3.45,3.44-3.44,3.44,3.44Zm-1.12,1.11-3.43,3.44-3.45-3.44,3.45-3.44Zm-8-1.11-3.44-3.45,3.44-3.44,3.45,3.44Zm0,2.23,3.45,3.43-3.45,3.45-3.44-3.45Zm3.45,12.55-3.45,3.44-3.44-3.44,3.44-3.44Zm1.11,1.12,3.44,3.44-3.43,3.45-3.45-3.45Zm1.12-1.12,3.44-3.44,3.44,3.44-3.44,3.44Zm8,1.12,3.43,3.44-3.43,3.45-3.45-3.45ZM414.9,409l3.45,3.45-2.23,2.23h-2.43l-2.23-2.23Zm-3.44-5.67,3.44-3.44,3.45,3.44-3.45,3.44Zm0-9.12,3.44-3.43,3.45,3.43-3.45,3.45Zm2.32-13.66L410.35,384l-3.45-3.44,3.08-3.09h.73Zm-8-1.11-2-2h3.93Zm-1.12,1.11L401.24,384l-3.45-3.44,3.08-3.09h.73Zm-6-3.09-2,2-2-2Zm-6.16,0,3.08,3.09L392.12,384l-3-3-.06-.82,2.69-2.71Zm-3,0-.64.64h0l-.05-.64Zm-.21,6,1.68,1.68-1.43,1.44Zm.94,11.54-.14-1.63h0l.88.88-.74.75Zm.16,2.08,1.7-1.71,3.44,3.45-3.44,3.44-1.39-1.39Zm.51,6.37v-.15l.07.07-.07.08Zm.6,7.33-.43-5.28,1-1,3.44,3.44-3.44,3.44-.59-.59Zm.32,3.94-.07-.79.34-.33,1.11,1.12Zm1.38-2.23,3.44-3.45,3.45,3.45-2.23,2.23h-2.43Zm6.89,2.23,1.12-1.12,1.11,1.12Zm4.46,0-2.23-2.23,3.44-3.45,3.44,3.45L407,414.64Zm4.65,0,1.12-1.12,1.12,1.12Zm10.5,0h-1.39l1.12-1.12.33.33Zm.32-3.94-.59.59L416,407.85l3.45-3.44,1,1Zm.61-7.49,0,.16-.07-.08.09-.08Zm.19-2.42-1.39,1.39L416,398.74l3.45-3.45,1.7,1.71Zm.48-5.86-.76-.76.89-.88Zm.94-11.56-.26,3.14-1.44-1.45,1.7-1.69Z" style="fill: #2C57B6; transform-origin: 405.79px 396.03px;" id="el0czddgdj6jwk" class="animable"></path><g id="elh2v55si6d6h"><g style="opacity: 0.6; isolation: isolate; transform-origin: 405.79px 396.03px;" class="animable" id="elrwpoblyk3u"><path d="M420.67,375.85H387.13l.27,3.39.2,2.42.51,6.3.29,3.61.39,4.82.16,2.06.06.62.2,2.43.26,3.32.17,2.07.17,2.1.2,2.42.15,1.84.17,2.07.07.89h30.79l.07-.89.16-2.06.15-1.85.2-2.43.17-2.09.17-2.07.27-3.33.19-2.42.05-.62.17-2.06.39-4.82.29-3.61.51-6.3.19-2.42.28-3.39Zm2,2.22h0l-.65-.65h.71Zm-.16,2.06-.07.82-3,3L416,380.51l3.09-3.09h.72Zm-.87,10.73-2.2,2.2L416,389.62l3.45-3.44,2.38,2.38Zm-31.92-2.3h0l2.38-2.38,3.44,3.44-3.44,3.44-2.2-2.2Zm28.61-3.5-3.45,3.45-3.44-3.45,3.44-3.44Zm-5.42-7.64h3.94l-2,2Zm.85,12.2-3.43,3.44-3.45-3.44,3.45-3.44Zm-11.43,4.55,3.44-3.43,3.44,3.43-3.44,3.45Zm2.32,4.56-3.44,3.45-3.44-3.44,3.45-3.45Zm5.68-3.44,3.43,3.45-3.43,3.44-3.45-3.45Zm-4.56-6.78-3.44-3.45,3.44-3.44,3.44,3.44Zm-1.12,1.11-3.43,3.44-3.45-3.44,3.45-3.44Zm-8-1.11-3.44-3.45,3.44-3.44,3.45,3.44Zm0,2.23,3.45,3.43-3.45,3.45-3.44-3.45Zm3.45,12.55-3.45,3.44-3.44-3.44,3.44-3.44Zm1.11,1.12,3.44,3.44-3.43,3.45-3.45-3.45Zm1.12-1.12,3.44-3.44,3.44,3.44-3.44,3.44Zm8,1.12,3.43,3.44-3.43,3.45-3.45-3.45ZM414.9,409l3.45,3.45-2.23,2.23h-2.43l-2.23-2.23Zm-3.44-5.67,3.44-3.44,3.45,3.44-3.45,3.44Zm0-9.12,3.44-3.43,3.45,3.43-3.45,3.45Zm2.32-13.66L410.35,384l-3.45-3.44,3.08-3.09h.73Zm-8-1.11-2-2h3.93Zm-1.12,1.11L401.24,384l-3.45-3.44,3.08-3.09h.73Zm-6-3.09-2,2-2-2Zm-6.16,0,3.08,3.09L392.12,384l-3-3-.06-.82,2.69-2.71Zm-3,0-.64.64h0l-.05-.64Zm-.21,6,1.68,1.68-1.43,1.44Zm.94,11.54-.14-1.63h0l.88.88-.74.75Zm.16,2.08,1.7-1.71,3.44,3.45-3.44,3.44-1.39-1.39Zm.51,6.37v-.15l.07.07-.07.08Zm.6,7.33-.43-5.28,1-1,3.44,3.44-3.44,3.44-.59-.59Zm.32,3.94-.07-.79.34-.33,1.11,1.12Zm1.38-2.23,3.44-3.45,3.45,3.45-2.23,2.23h-2.43Zm6.89,2.23,1.12-1.12,1.11,1.12Zm4.46,0-2.23-2.23,3.44-3.45,3.44,3.45L407,414.64Zm4.65,0,1.12-1.12,1.12,1.12Zm10.5,0h-1.39l1.12-1.12.33.33Zm.32-3.94-.59.59L416,407.85l3.45-3.44,1,1Zm.61-7.49,0,.16-.07-.08.09-.08Zm.19-2.42-1.39,1.39L416,398.74l3.45-3.45,1.7,1.71Zm.48-5.86-.76-.76.89-.88Zm.94-11.56-.26,3.14-1.44-1.45,1.7-1.69Z" style="fill: rgb(255, 255, 255); transform-origin: 405.79px 396.03px;" id="el2jofw4nonpy" class="animable"></path></g></g><g id="elhzzu7jl2ye7"><rect x="384.98" y="374.44" width="41.62" height="4.39" rx="1.64" style="fill: #2C57B6; transform-origin: 405.79px 376.635px; transform: rotate(180deg);" class="animable" id="el4tce505c6so"></rect></g><rect x="387.98" y="413.85" width="35.62" height="4.39" rx="1.64" style="fill: #2C57B6; transform-origin: 405.79px 416.045px;" id="elddvqmb8dp4n" class="animable"></rect></g><g id="freepik--Character--inject-124" class="animable" style="transform-origin: 301.707px 307.152px;"><path d="M366.93,396.24l-27.88-2.74V362.06H328v31.43l-28,2.75a5.43,5.43,0,0,0-4.9,5.4v4.19h76.71v-4.19A5.43,5.43,0,0,0,366.93,396.24Z" style="fill: rgb(38, 50, 56); transform-origin: 333.455px 383.945px;" id="eltllhswstuhe" class="animable"></path><g id="elewx60hz43q"><path d="M366.93,396.24l-27.88-2.74V362.06H328v31.43l-28,2.75a5.43,5.43,0,0,0-4.9,5.4v4.19h76.71v-4.19A5.43,5.43,0,0,0,366.93,396.24Z" style="fill: rgb(255, 255, 255); opacity: 0.1; isolation: isolate; transform-origin: 333.455px 383.945px;" class="animable" id="elq6oitfpqml"></path></g><circle cx="298.06" cy="411.02" r="7.22" style="fill: rgb(38, 50, 56); transform-origin: 298.06px 411.02px;" id="elkup0joc4cag" class="animable"></circle><circle cx="368.87" cy="411.02" r="7.22" style="fill: rgb(38, 50, 56); transform-origin: 368.87px 411.02px;" id="elxuzk1g7idy" class="animable"></circle><path d="M326.1,335.58H341a0,0,0,0,1,0,0v30.76a4.13,4.13,0,0,1-4.13,4.13h-6.59a4.13,4.13,0,0,1-4.13-4.13V335.58A0,0,0,0,1,326.1,335.58Z" style="fill: rgb(38, 50, 56); transform-origin: 333.55px 353.025px;" id="elbtoagim4ed4" class="animable"></path><g id="eliqxe6qfwekn"><path d="M326.1,335.58H341a0,0,0,0,1,0,0v30.76a4.13,4.13,0,0,1-4.13,4.13h-6.59a4.13,4.13,0,0,1-4.13-4.13V335.58A0,0,0,0,1,326.1,335.58Z" style="fill: rgb(255, 255, 255); opacity: 0.2; isolation: isolate; transform-origin: 333.55px 353.025px;" class="animable" id="el2datlct5opp"></path></g><path d="M372.11,275s-8.28,51.68-24.61,60.57h16.6S380.51,318,385.51,275Z" style="fill: rgb(38, 50, 56); transform-origin: 366.505px 305.285px;" id="elf9qbi7l7qt" class="animable"></path><g id="el7bkugcry0a"><path d="M372.11,275s-8.28,51.68-24.61,60.57h16.6S380.51,318,385.51,275Z" style="fill: rgb(255, 255, 255); opacity: 0.1; isolation: isolate; transform-origin: 366.505px 305.285px;" class="animable" id="elpb5whs0jrj"></path></g><g id="el7ms1xt71w5b"><path d="M295.33,328.28h74.43a0,0,0,0,1,0,0v6.31a5,5,0,0,1-5,5H300.33a5,5,0,0,1-5-5v-6.31A0,0,0,0,1,295.33,328.28Z" style="fill: #2C57B6; transform-origin: 332.545px 333.935px; transform: rotate(-180deg);" class="animable" id="el7daipbiwcxi"></path></g><g id="el34chmx3oe9c"><rect x="292.23" y="333.93" width="80.63" height="5.66" rx="2.01" style="fill: rgb(38, 50, 56); transform-origin: 332.545px 336.76px; transform: rotate(180deg);" class="animable" id="elwvqckwnhy4"></rect></g><g id="el2xzfjc3n4eu"><rect x="292.23" y="333.93" width="80.63" height="5.66" rx="2.01" style="fill: rgb(255, 255, 255); opacity: 0.6; isolation: isolate; transform-origin: 332.545px 336.76px; transform: rotate(180deg);" class="animable" id="elp8ocxasjdr"></rect></g><path d="M387.47,285.51H360.86c-7.79,0-12.85-6.25-11.3-14l2.07-10.29c1.54-7.71,9.12-14,16.91-14h26.6c7.8,0,12.86,6.25,11.31,14l-2.07,10.29C402.83,279.26,395.26,285.51,387.47,285.51Z" style="fill: #2C57B6; transform-origin: 378.005px 266.365px;" id="el5z0jom9vslk" class="animable"></path><g id="freepik--group--inject-124" class="animable" style="transform-origin: 274.908px 307.151px;"><path d="M252.72,250.89,245.83,247a8.61,8.61,0,0,0-3.7-1.74,60.16,60.16,0,0,0-11.35.89c-1,.39-.64,8.42,0,8.55s10.59.25,11.48,0,3.06-2.68,3.06-2.68l5.11,3.42Z" style="fill: rgb(235, 179, 118); transform-origin: 241.439px 250.346px;" id="el7gstit2updf" class="animable"></path><path d="M283.9,240.13c-3.62,3.24-15,16.81-16.78,17.3s-18.42-10-18.42-10l-2.36,6.61s15.66,12.89,20.78,13.78c5.55,1,24.05-14,24.05-14Z" style="fill: #2C57B6; transform-origin: 268.755px 253.999px;" id="elx526x77r5yn" class="animable"></path><g id="elyy5kwscvyk8"><path d="M291.17,253.82S287,257.2,282,260.64c-5.5,3.8-12,7.69-14.89,7.18-5.13-.88-20.79-13.77-20.79-13.77l2.36-6.61s16.66,10.47,18.43,10,13.16-14.06,16.76-17.3l4.76,8.94Z" style="fill: rgb(255, 255, 255); opacity: 0.5; isolation: isolate; transform-origin: 268.745px 254.003px;" class="animable" id="eln3lts53u6gd"></path></g><g id="el8n44lnc9gol"><path d="M291.17,253.82S287,257.2,282,260.64c.85-4.71,4.69-9.44,6.63-11.57Z" style="opacity: 0.2; isolation: isolate; transform-origin: 286.585px 254.855px;" class="animable" id="el3gkswsxpre1"></path></g><path d="M301.53,282.54s-16.81-29.38-17.63-42.41c0,0,5.77-10.67,13.34-13s27.61-1,27.61-1,15.85,16.26,24.43,53.25Z" style="fill: #2C57B6; transform-origin: 316.59px 254.146px;" id="elj19uxpjar9" class="animable"></path><g id="el2y42g0pmnbd"><path d="M301.53,282.54s-16.81-29.38-17.63-42.41c0,0,5.77-10.67,13.34-13s27.61-1,27.61-1,15.85,16.26,24.43,53.25Z" style="fill: rgb(255, 255, 255); opacity: 0.7; isolation: isolate; transform-origin: 316.59px 254.146px;" class="animable" id="eld9b8oejyho"></path></g><g id="ela0zitwv8m7t"><polygon points="313.39 248.51 323.35 246.17 326.98 255.38 323.15 259.47 316.91 257.43 313.39 248.51" style="opacity: 0.1; isolation: isolate; transform-origin: 320.185px 252.82px;" class="animable" id="el5jaszykxe0u"></polygon></g><polygon points="310.43 408.3 301.89 409.89 294.31 390.86 302.84 389.28 310.43 408.3" style="fill: rgb(235, 179, 118); transform-origin: 302.37px 399.585px;" id="el6s22mga5wxr" class="animable"></polygon><g id="elg10fftye8sc"><polygon points="302.84 389.28 294.32 390.87 298.65 401.75 307.03 399.76 302.84 389.28" style="opacity: 0.2; isolation: isolate; transform-origin: 300.675px 395.515px;" class="animable" id="el7j303ysfil6"></polygon></g><polygon points="219.61 411.56 212.5 406.58 220.78 387.85 227.88 392.83 219.61 411.56" style="fill: rgb(235, 179, 118); transform-origin: 220.19px 399.705px;" id="elg34uz830fdb" class="animable"></polygon><g id="elzg1y1l587n"><polygon points="227.88 392.83 220.78 387.86 216.05 398.57 223.33 403.16 227.88 392.83" style="opacity: 0.2; isolation: isolate; transform-origin: 221.965px 395.51px;" class="animable" id="el2nswmyz7lqs"></polygon></g><path d="M338.41,311.45l-27.25,8.35L256.8,336.48C244.27,365.58,228.92,396,228.92,396l-14.22-5.84s15.31-51.09,19.78-63.86c7.14-20.38,83.42-34,83.42-34Z" style="fill: rgb(38, 50, 56); transform-origin: 276.555px 344.15px;" id="elgkzy8vazp98" class="animable"></path><polygon points="228.21 401.34 210.7 393.76 212.98 385.76 232.02 394.45 228.21 401.34" style="fill: #2C57B6; transform-origin: 221.36px 393.55px;" id="eli6jlru0mr5d" class="animable"></polygon><g id="elfx84ekaqhz6"><polygon points="228.21 401.34 210.7 393.76 212.98 385.76 232.02 394.45 228.21 401.34" style="fill: rgb(255, 255, 255); opacity: 0.2; transform-origin: 221.36px 393.55px;" class="animable" id="elymmr01589va"></polygon></g><path d="M211.41,406.07s-.1-.1-.1-.11l-.11-.11h0l.12.1c.06-.12,1.27-2.26.82-3.37a1,1,0,0,0-.65-.58.76.76,0,0,0-.9.28,3.19,3.19,0,0,0-.12,2.17c-.58-.73-1.31-1.46-1.92-1.49a.81.81,0,0,0-.66.34,1.09,1.09,0,0,0-.22,1.14,2.29,2.29,0,0,0,1.32,1,10.56,10.56,0,0,0,2.21.64l.07,0,.06,0Zm-.49-3.52c.07-.1.19-.2.47-.11l.09,0a.59.59,0,0,1,.32.34c.28.66-.21,1.95-.56,2.7a1.63,1.63,0,0,0-.11-.17A4.16,4.16,0,0,1,210.92,402.55ZM208,404.29a.73.73,0,0,1,.16-.72.37.37,0,0,1,.32-.17c.61,0,1.64,1.27,2.3,2.26C209.28,405.32,208.26,404.82,208,404.29Z" style="fill: #2C57B6; transform-origin: 209.918px 404.015px;" id="eljkovk9vedl" class="animable"></path><path d="M212.4,405.36l8.92,3.9a.61.61,0,0,1,.35.8h0L219,417.32a1.54,1.54,0,0,1-2,.8c-3.09-1.41-4.49-2.24-8.4-4-2.41-1.06-7.27-2.92-10.33-4.89s-1-4.94.44-4.38c3.49,1.32,9.1,1.14,12.11.36A2.42,2.42,0,0,1,212.4,405.36Z" style="fill: rgb(38, 50, 56); transform-origin: 209.2px 411.509px;" id="elqjcjpr408yo" class="animable"></path><path d="M300.83,409h0c0-.15-.15-2.61-1.05-3.39a1.26,1.26,0,0,0-1-.22.81.81,0,0,0-.74.65,3.11,3.11,0,0,0,.85,2,3.56,3.56,0,0,0-2.4-.45.79.79,0,0,0-.44.61,1.1,1.1,0,0,0,.32,1.11,2.33,2.33,0,0,0,1.65.32,10.29,10.29,0,0,0,2.26-.45.09.09,0,0,0,.07,0s0,0,0-.06.21-.05.22-.08l.18,0Zm-2.39-2.88c0-.12.08-.26.36-.31l.1,0a.59.59,0,0,1,.44.16c.55.46.7,1.83.74,2.65l-.18-.1A4.05,4.05,0,0,1,298.44,406.12ZM296.67,409a.75.75,0,0,1-.19-.71.35.35,0,0,1,.21-.3c.55-.26,2,.38,3.08.95C298.24,409.34,297.1,409.36,296.67,409Z" style="fill: #2C57B6; transform-origin: 298.42px 407.515px;" id="elbtthpjzfni5" class="animable"></path><path d="M301,408l9.72-.61a.61.61,0,0,1,.67.55h0l1,7.66a1.54,1.54,0,0,1-1.42,1.63c-3.39.15-5,.06-9.3.29-2.62.16-7.8.72-11.42.37s-3.18-3.93-1.61-4.1c3.71-.42,8.62-3.14,10.94-5.21A2.4,2.4,0,0,1,301,408Z" style="fill: rgb(38, 50, 56); transform-origin: 299.933px 412.695px;" id="elmdyolclpk6c" class="animable"></path><path d="M284.9,231.82a6.91,6.91,0,0,1,4.6,0,6.69,6.69,0,0,0,6.43,5.16,12.12,12.12,0,0,0,2.21-.09c7.49-1,6.67-12.17,6.67-12.17a13.29,13.29,0,0,1-7.8-1.87h0a17.34,17.34,0,0,1-5.11-4.57Z" style="fill: rgb(235, 179, 118); transform-origin: 294.868px 227.638px;" id="elvb8gbt1fsa" class="animable"></path><g id="ela2h3n7lfcwp"><path d="M284.9,231.82a6.91,6.91,0,0,1,4.6,0,6.69,6.69,0,0,0,6.43,5.16c1.93-4.77,1.68-10.23,1.08-14.13h0a17.34,17.34,0,0,1-5.11-4.57Z" style="opacity: 0.2; isolation: isolate; transform-origin: 291.173px 227.63px;" class="animable" id="elw0yz4xmqo9l"></path></g><path d="M279.68,207.2c3.7,1.6,2.92,5.65-3.38,13-3.75-3.33-5.69-10.82-3.66-13.18S276.45,205.81,279.68,207.2Z" style="fill: rgb(38, 50, 56); transform-origin: 276.862px 212.931px;" id="elfvwqcwqs71e" class="animable"></path><path d="M294.93,210.63c1.16,8.08,2.24,12.75-.93,17.68-4.78,7.41-15.38,5.8-18.94-1.78-3.18-6.8-4.55-18.87,2.6-23.65a11.14,11.14,0,0,1,17.27,7.75Z" style="fill: rgb(235, 179, 118); transform-origin: 284.281px 217.044px;" id="el89wovdd03is" class="animable"></path><path d="M283.47,215.29c.14.65-.1,1.24-.53,1.33s-.87-.36-1-1,.09-1.25.52-1.34S283.29,214.66,283.47,215.29Z" style="fill: rgb(38, 50, 56); transform-origin: 282.706px 215.45px;" id="el16op8wkkt0c" class="animable"></path><path d="M276.09,216.83c.14.64-.1,1.24-.52,1.33s-.88-.36-1-1,.1-1.25.53-1.33S276,216.18,276.09,216.83Z" style="fill: rgb(38, 50, 56); transform-origin: 275.334px 216.996px;" id="eluoy1wv0pjsi" class="animable"></path><path d="M278.56,216.63a23.67,23.67,0,0,1-1.95,6.2,3.83,3.83,0,0,0,3.23-.07Z" style="fill: rgb(213, 135, 69); transform-origin: 278.225px 219.892px;" id="elsauspm065o" class="animable"></path><path d="M290.29,204.22c-3.47,2.05-2.18,6,5,12.42,3.3-3.79,4.28-11.47,2-13.54S293.32,202.44,290.29,204.22Z" style="fill: rgb(38, 50, 56); transform-origin: 293.487px 209.356px;" id="elndoquyiodb" class="animable"></path><path d="M300.05,216.23a7.75,7.75,0,0,1-2.67,5.29c-2.08,1.75-4.24.17-4.61-2.38-.33-2.3.35-6,2.89-6.74S300.23,213.72,300.05,216.23Z" style="fill: rgb(235, 179, 118); transform-origin: 296.377px 217.254px;" id="elyeqc7l9sx48" class="animable"></path><path d="M286.78,211.47a.43.43,0,0,1-.42.09,3.35,3.35,0,0,0-3,.31.41.41,0,0,1-.51-.65h0a4.13,4.13,0,0,1,3.75-.44.4.4,0,0,1,.26.51h0A.62.62,0,0,1,286.78,211.47Z" style="fill: rgb(38, 50, 56); transform-origin: 284.786px 211.238px;" id="elfea2uty6p4" class="animable"></path><path d="M272.08,213.46a.39.39,0,0,1-.22-.11.42.42,0,0,1,.11-.57h0a4.1,4.1,0,0,1,3.75-.44.4.4,0,0,1,.21.54h0a.41.41,0,0,1-.54.21h0a3.36,3.36,0,0,0-3,.4A.39.39,0,0,1,272.08,213.46Z" style="fill: rgb(38, 50, 56); transform-origin: 273.88px 212.792px;" id="elurcq3p3or1q" class="animable"></path><path d="M296.38,204s1.78-3.54-2.9-6.61-18.84-.67-23.91,5.75-.67,10.33-.67,10.33a4.63,4.63,0,0,1,.47-3.12,5.69,5.69,0,0,0,2.45,2.52c1.61.72.54.49.54.49a7,7,0,0,1,1.54-4.67,10.89,10.89,0,0,0,4.32,2.6,6.15,6.15,0,0,1,2.35-3.47s.88,2.83,2.23,3.1c0,0-.12-2.31,3-4,0,0,.35,2.2,1.23,2.78C287.06,209.78,288.55,204.8,296.38,204Z" style="fill: rgb(38, 50, 56); transform-origin: 281.921px 204.767px;" id="elace8c7zm3k" class="animable"></path><path d="M281.92,225.48a.36.36,0,0,1-.2-.06.37.37,0,0,1-.12-.52,8.86,8.86,0,0,1,4.8-3.42.36.36,0,0,1,.46.25.38.38,0,0,1-.25.47,8.23,8.23,0,0,0-4.38,3.1A.36.36,0,0,1,281.92,225.48Z" style="fill: rgb(38, 50, 56); transform-origin: 284.208px 223.471px;" id="eluf5zalg6pb" class="animable"></path><path d="M282.27,220a4,4,0,0,1-3.6-3.42c-.42-2.21.76-4.3,2.63-4.66s3.73,1.16,4.15,3.37a4.47,4.47,0,0,1-.44,3,3.21,3.21,0,0,1-2.19,1.65A3.31,3.31,0,0,1,282.27,220Zm-.42-7.6a2.28,2.28,0,0,0-.45,0c-1.58.3-2.58,2.11-2.21,4h0c.36,1.92,1.94,3.26,3.53,2.95a2.67,2.67,0,0,0,1.83-1.39,3.92,3.92,0,0,0,.38-2.65A3.42,3.42,0,0,0,281.85,212.36Z" style="fill: rgb(38, 50, 56); transform-origin: 282.062px 215.934px;" id="el4r7ezsijuvb" class="animable"></path><path d="M273.67,221.45a3.26,3.26,0,0,1-2.08-.79,4.48,4.48,0,0,1-1.51-2.64h0c-.42-2.21.76-4.29,2.63-4.65a3.2,3.2,0,0,1,2.64.74,4.46,4.46,0,0,1,1.51,2.63,4.54,4.54,0,0,1-.44,3,3.19,3.19,0,0,1-2.19,1.64A2.67,2.67,0,0,1,273.67,221.45Zm-3.07-3.52a3.93,3.93,0,0,0,1.32,2.32,2.57,2.57,0,0,0,4-.76,4.13,4.13,0,0,0-.95-5,2.65,2.65,0,0,0-2.2-.62c-1.59.3-2.58,2.11-2.21,4Z" style="fill: rgb(38, 50, 56); transform-origin: 273.471px 217.387px;" id="elrnsa0kfzwr" class="animable"></path><path d="M276.6,217.05a.28.28,0,0,1-.16-.05.26.26,0,0,1-.05-.37,2.05,2.05,0,0,1,2.68-.37.27.27,0,0,1,.09.36.26.26,0,0,1-.37.09,1.55,1.55,0,0,0-2,.24A.26.26,0,0,1,276.6,217.05Z" style="fill: rgb(38, 50, 56); transform-origin: 277.765px 216.485px;" id="el8n52z0naxu6" class="animable"></path><path d="M285.19,215.57a.26.26,0,0,1-.25-.2.26.26,0,0,1,.18-.32l7.5-2.1a.28.28,0,0,1,.33.19.27.27,0,0,1-.19.32l-7.5,2.1Z" style="fill: rgb(38, 50, 56); transform-origin: 288.944px 214.256px;" id="el2qhwcxwx6f5" class="animable"></path><g id="elf8tnoli83jr"><path d="M311.16,319.8,256.8,336.48s-2-15,7.79-22c14.3-10.26,45.84-13.13,45.84-13.13S310.82,310.27,311.16,319.8Z" style="opacity: 0.2; isolation: isolate; transform-origin: 283.896px 318.915px;" class="animable" id="el7wxg4hnqd1h"></path></g><path d="M300.27,302.55l2.1-13.15-.84-6.86,47.75-3.19L350,287s5.68,26.84,1.74,34.12c-7,13-36,12.49-61.19,12.49,5.47,16,16.45,56.5,16.45,56.5l-13.17,6s-25.41-46.22-31.18-66.23C257.58,312.21,282.29,306.91,300.27,302.55Z" style="fill: rgb(38, 50, 56); transform-origin: 307.555px 337.73px;" id="elwu1rjvk1sj" class="animable"></path><polygon points="309.99 393.73 292.32 400.92 288.2 393.7 307.74 386.18 309.99 393.73" style="fill: #2C57B6; transform-origin: 299.095px 393.55px;" id="elrx1fy55ndp7" class="animable"></polygon><g id="elkj29nokevyq"><polygon points="309.99 393.73 292.32 400.92 288.2 393.7 307.74 386.18 309.99 393.73" style="fill: rgb(255, 255, 255); opacity: 0.2; transform-origin: 299.095px 393.55px;" class="animable" id="el5vhnqbad91"></polygon></g><polygon points="334.31 287.49 350.58 286.52 349.6 280.48 333.69 281.5 334.31 287.49" id="elq73aj1eqye" class="animable" style="transform-origin: 342.135px 283.985px;"></polygon><polygon points="304.23 283.38 301.53 283.56 302.37 289.4 304.7 289.26 304.23 283.38" id="elvf6mh3mhhep" class="animable" style="transform-origin: 303.115px 286.39px;"></polygon><polygon points="306.61 289.15 332.4 287.61 331.92 281.61 306 283.27 306.61 289.15" id="el18nb5caneip" class="animable" style="transform-origin: 319.2px 285.38px;"></polygon><path d="M314.19,289.23a2.23,2.23,0,0,1-2.23-2.05l-.19-2.18a2.23,2.23,0,0,1,2-2.42l4.63-.4a2.19,2.19,0,0,1,1.64.52,2.22,2.22,0,0,1,.78,1.52l.19,2.18a2.22,2.22,0,0,1-.52,1.64,2.19,2.19,0,0,1-1.52.79l0-.5,0,.5-4.63.39Zm4.44-6.06h-.1l-4.63.4a1.23,1.23,0,0,0-1.13,1.34l.18,2.19a1.24,1.24,0,0,0,.44.84,1.28,1.28,0,0,0,.9.29l4.63-.4a1.25,1.25,0,0,0,.85-.44,1.27,1.27,0,0,0,.29-.9l-.19-2.18a1.25,1.25,0,0,0-.44-.85A1.21,1.21,0,0,0,318.63,283.17Z" style="fill: rgb(255, 255, 255); transform-origin: 316.39px 285.7px;" id="elhxc9n7q59ab" class="animable"></path><path d="M317.48,286.2a.51.51,0,0,1-.5-.43.5.5,0,0,1,.43-.56l1.91-.26a.49.49,0,0,1,.57.42.51.51,0,0,1-.43.57l-1.92.26Z" style="fill: rgb(255, 255, 255); transform-origin: 318.435px 285.571px;" id="elxayjoajnp6j" class="animable"></path><g id="elle4liylkoh"><path d="M300.47,241.23s4.84,17.11,10.69,28.69c0,0-9.21-17.17-12.65-30.4Z" style="opacity: 0.2; isolation: isolate; transform-origin: 304.835px 254.72px;" class="animable" id="elayqthcw8e6b"></path></g><path d="M300.72,244.42l2.49-3.25h1.34l1.91,2,.19,2.28c-2.35,1.05-5.93,0-5.93,0Z" style="fill: #2C57B6; transform-origin: 303.685px 243.543px;" id="el38xdldh7l0k" class="animable"></path><path d="M303.11,242a65.33,65.33,0,0,0-1.34-12.36l1.34.58a32.77,32.77,0,0,1,1.34,12.63Z" style="fill: #2C57B6; transform-origin: 303.175px 236.245px;" id="elrzq92z6z27" class="animable"></path><path d="M301.42,244.52s-9.41-3.72-10.31-9.82l-.66,1.15s2.24,7.71,12.14,9.62Z" style="fill: #2C57B6; transform-origin: 296.52px 240.085px;" id="elgnnxodm4yqa" class="animable"></path><path d="M305.34,243.94a6,6,0,0,0,4.47-3.35c2.23-5.13,0-12.66,5.52-16l3.1,1.1a10.19,10.19,0,0,0-3.6,5.23c-1.12,4.3-2.39,14.94-9.49,14.54Z" style="fill: #2C57B6; transform-origin: 311.885px 235.03px;" id="el7dnmmd9cff7" class="animable"></path><path d="M303.12,222.86l-4.61,11.32-.37,2.71-3.27-1.56-5.27-3.14s-2.34,3.27,1.57,8.37l3.7-3.06,5.19,5.69,1.47-7,6.05,1.95S310,228,310,225.1Z" style="fill: #2C57B6; transform-origin: 299.453px 233.025px;" id="eldiwkck8lkye" class="animable"></path><g id="el8dep2beuu9p"><path d="M310,225.1c0,2.92-2.43,13.07-2.43,13.07l-6.06-1.95-1.46,7-5.19-5.69-3.7,3.06c-3.91-5.1-1.58-8.37-1.58-8.37l5.28,3.14,3.27,1.56.37-2.71,4.6-11.32Z" style="fill: rgb(255, 255, 255); opacity: 0.6; isolation: isolate; transform-origin: 299.446px 233.055px;" class="animable" id="elr6nsnywxr2f"></path></g><g id="el0jf21x32rfb9"><polygon points="307.58 238.17 301.52 236.22 300.06 243.19 299.74 234.43 307.58 238.17" style="opacity: 0.2; isolation: isolate; transform-origin: 303.66px 238.81px;" class="animable" id="el5ovwm7fz5n6"></polygon></g><g id="el1n1gji7mzke"><polygon points="300.06 243.19 294.87 237.5 291.17 240.56 293.81 235.84 300.06 243.19" style="opacity: 0.2; isolation: isolate; transform-origin: 295.615px 239.515px;" class="animable" id="elv2yfg8ksy2l"></polygon></g><path d="M274.86,254.12l-7.75-.87a8.56,8.56,0,0,0-3.7-1.74,60.26,60.26,0,0,0-11.36.88c-1,.39-.64,8.42,0,8.56s10.59.25,11.49,0,3.06-2.68,3.06-2.68l6.79,1.2Z" style="fill: rgb(235, 179, 118); transform-origin: 263.144px 256.3px;" id="el18hl13mykh5" class="animable"></path><path d="M324.85,226.1c-3.2.65-18,28.76-18,28.76L268.76,253l-.57,6.52s34.13,7.43,41.82,6,21.56-25.43,22.39-28.07C334.29,231.44,327,225.66,324.85,226.1Z" style="fill: #2C57B6; transform-origin: 300.45px 245.89px;" id="el3sjl7kqrx3g" class="animable"></path><g id="eljhv5utj1ipl"><path d="M324.85,226.1c-3.2.65-18,28.76-18,28.76L268.76,253l-.57,6.52s34.13,7.43,41.82,6,21.56-25.43,22.39-28.07C334.29,231.44,327,225.66,324.85,226.1Z" style="fill: rgb(255, 255, 255); opacity: 0.6; isolation: isolate; transform-origin: 300.45px 245.89px;" class="animable" id="elhifbma0hp69"></path></g></g></g><g id="freepik--Progress--inject-124" class="animable" style="transform-origin: 242.805px 150.33px;"><path d="M295.54,152.69H190.07a4,4,0,1,0,0,8H295.54a4,4,0,0,0,0-8Z" style="fill: #2C57B6; transform-origin: 242.805px 156.69px;" id="elq73idvc0hv" class="animable"></path><g id="eli7rkw24rr8"><path d="M295.54,152.69H190.07a4,4,0,1,0,0,8H295.54a4,4,0,0,0,0-8Z" style="fill: rgb(255, 255, 255); opacity: 0.6; isolation: isolate; transform-origin: 242.805px 156.69px;" class="animable" id="el2fq361g4nhp"></path></g><path d="M253.73,153.59H190.15a3.12,3.12,0,0,0,0,6.23h63.58a3.12,3.12,0,0,0,0-6.23Z" style="fill: #2C57B6; transform-origin: 221.94px 156.705px;" id="eladhm11f4bnv" class="animable"></path><path d="M220.1,141.88c0,1-.75,1.66-2,1.66h-1.18V145h-.69v-4.78h1.87C219.35,140.21,220.1,140.84,220.1,141.88Zm-.68,0c0-.69-.46-1.08-1.33-1.08h-1.16V143h1.16C219,143,219.42,142.56,219.42,141.88Z" style="fill: rgb(38, 50, 56); transform-origin: 218.165px 142.61px;" id="elan2tgjg7g14" class="animable"></path><path d="M224.31,145l-1-1.47-.3,0h-1.18V145h-.68v-4.78H223c1.25,0,2,.63,2,1.67a1.51,1.51,0,0,1-1.05,1.51l1.13,1.6Zm0-3.11c0-.69-.46-1.08-1.34-1.08h-1.16V143H223C223.83,143,224.29,142.56,224.29,141.88Z" style="fill: rgb(38, 50, 56); transform-origin: 223.115px 142.61px;" id="elq24htvmkl9" class="animable"></path><path d="M225.69,142.6a2.54,2.54,0,1,1,2.54,2.45A2.43,2.43,0,0,1,225.69,142.6Zm4.4,0a1.86,1.86,0,1,0-1.86,1.84A1.8,1.8,0,0,0,230.09,142.6Z" style="fill: rgb(38, 50, 56); transform-origin: 228.228px 142.511px;" id="elajgptfnrfsp" class="animable"></path><path d="M235.13,142.57h.66v1.87a2.87,2.87,0,0,1-1.82.61,2.45,2.45,0,1,1,1.86-4.16l-.43.42a1.88,1.88,0,0,0-1.38-.55,1.84,1.84,0,1,0,0,3.68,2,2,0,0,0,1.12-.31Z" style="fill: rgb(38, 50, 56); transform-origin: 233.729px 142.601px;" id="elhn6ncpd4k2e" class="animable"></path><path d="M240.29,145l-1-1.47-.3,0h-1.19V145h-.68v-4.78H239c1.24,0,2,.63,2,1.67a1.51,1.51,0,0,1-1,1.51L241,145Zm0-3.11c0-.69-.46-1.08-1.33-1.08h-1.17V143h1.17C239.81,143,240.27,142.56,240.27,141.88Z" style="fill: rgb(38, 50, 56); transform-origin: 239.061px 142.61px;" id="elwe18d8jypr" class="animable"></path><path d="M245.53,144.4V145h-3.47v-4.78h3.37v.59h-2.69v1.47h2.4v.58h-2.4v1.55Z" style="fill: rgb(38, 50, 56); transform-origin: 243.795px 142.61px;" id="elp0tgl2g95u" class="animable"></path><path d="M246.2,144.45l.25-.54a2.48,2.48,0,0,0,1.58.56c.83,0,1.18-.32,1.18-.74,0-1.17-2.9-.43-2.9-2.21,0-.74.58-1.37,1.84-1.37a2.72,2.72,0,0,1,1.53.43l-.22.54a2.54,2.54,0,0,0-1.31-.39c-.82,0-1.17.35-1.17.76,0,1.17,2.9.44,2.9,2.2,0,.73-.59,1.36-1.85,1.36A2.86,2.86,0,0,1,246.2,144.45Z" style="fill: rgb(38, 50, 56); transform-origin: 248.04px 142.6px;" id="elpcoa9di1frd" class="animable"></path><path d="M250.44,144.45l.25-.54a2.5,2.5,0,0,0,1.58.56c.83,0,1.19-.32,1.19-.74,0-1.17-2.9-.43-2.9-2.21,0-.74.57-1.37,1.83-1.37a2.78,2.78,0,0,1,1.54.43l-.23.54a2.51,2.51,0,0,0-1.31-.39c-.81,0-1.16.35-1.16.76,0,1.17,2.9.44,2.9,2.2,0,.73-.59,1.36-1.86,1.36A2.86,2.86,0,0,1,250.44,144.45Z" style="fill: rgb(38, 50, 56); transform-origin: 252.285px 142.6px;" id="elwid0bsdzwl" class="animable"></path><path d="M260.06,140.21v.46L258.12,145h-.72l1.89-4.19H257.1v.86h-.65v-1.45Z" style="fill: rgb(38, 50, 56); transform-origin: 258.255px 142.605px;" id="el7ox6nwkyu74" class="animable"></path><path d="M260.52,142.6c0-1.56.83-2.45,2-2.45s1.94.89,1.94,2.45-.83,2.45-1.94,2.45S260.52,144.16,260.52,142.6Zm3.22,0c0-1.22-.52-1.84-1.26-1.84s-1.28.62-1.28,1.84.52,1.84,1.28,1.84S263.74,143.82,263.74,142.6Z" style="fill: rgb(38, 50, 56); transform-origin: 262.49px 142.6px;" id="elttbd3m31cad" class="animable"></path><path d="M265,141.47a1.15,1.15,0,0,1,1.12-1.3c.66,0,1.1.52,1.1,1.3s-.44,1.31-1.1,1.31A1.16,1.16,0,0,1,265,141.47Zm1.79,0c0-.57-.26-.91-.67-.91s-.67.34-.67.91.26.92.67.92S266.79,142.05,266.79,141.47Zm2.21-1.26h.53L266.26,145h-.53Zm-1,3.52c0-.78.44-1.31,1.11-1.31a1.32,1.32,0,0,1,0,2.61A1.15,1.15,0,0,1,268,143.73Zm1.77,0c0-.57-.25-.92-.66-.92s-.67.34-.67.92.25.91.67.91S269.81,144.3,269.81,143.73Z" style="fill: rgb(38, 50, 56); transform-origin: 267.611px 142.6px;" id="elvxjnq45ngrr" class="animable"></path></g><g id="freepik--Table--inject-124" class="animable" style="transform-origin: 215.005px 313.85px;"><polygon points="115.08 262.89 115.08 259.62 112.89 259.62 115.08 258.34 113.44 258.34 115.63 256.91 117.71 256.91 117.71 255.26 115.3 255.26 117.71 254.3 117.71 250.73 115.3 250.73 115.3 248.4 112.89 248.4 115.3 247.59 115.3 245.93 113.57 245.93 114.98 244.52 116.21 243.29 153.59 243.29 153.59 244.97 156.06 244.97 153.31 246.2 153.31 247.59 158.35 247.59 158.35 250.16 160.58 250.16 158.35 251.28 158.35 254.16 156.77 254.16 156.77 255.53 153.59 255.53 153.59 259.62 155.37 259.62 153.91 261.08 153.91 262.9 115.08 262.89" style="fill: #2C57B6; transform-origin: 136.735px 253.095px;" id="elzqx9ov5kui" class="animable"></polygon><g id="el8a85r9p9yy"><polygon points="115.08 262.89 115.08 259.62 112.89 259.62 115.08 258.34 113.44 258.34 115.63 256.91 117.71 256.91 117.71 255.26 115.3 255.26 117.71 254.3 117.71 250.73 115.3 250.73 115.3 248.4 112.89 248.4 115.3 247.59 115.3 245.93 113.57 245.93 114.98 244.52 116.21 243.29 153.59 243.29 153.59 244.97 156.06 244.97 153.31 246.2 153.31 247.59 158.35 247.59 158.35 250.16 160.58 250.16 158.35 251.28 158.35 254.16 156.77 254.16 156.77 255.53 153.59 255.53 153.59 259.62 155.37 259.62 153.91 261.08 153.91 262.9 115.08 262.89" style="fill: rgb(255, 255, 255); opacity: 0.7; isolation: isolate; transform-origin: 136.735px 253.095px;" class="animable" id="el8m202w3nzj8"></polygon></g><g id="el4wl33lwtru3"><polygon points="115.08 262.89 115.08 259.62 112.89 259.62 115.08 258.34 113.44 258.34 115.63 256.91 117.71 256.91 117.71 255.26 115.3 255.26 117.71 254.3 117.71 250.73 115.3 250.73 115.3 248.4 112.89 248.4 115.3 247.59 115.3 245.93 113.57 245.93 114.98 244.52 116.21 243.29 135.9 243.29 135.9 244.97 138.37 244.97 135.62 246.2 135.62 247.59 140.66 247.59 140.66 250.16 142.89 250.16 140.66 251.28 140.66 254.16 139.08 254.16 139.08 255.53 135.9 255.53 135.9 259.62 137.68 259.62 136.22 261.08 136.22 262.9 115.08 262.89" style="opacity: 0.1; isolation: isolate; transform-origin: 127.89px 253.095px;" class="animable" id="el6cdz8qovboy"></polygon></g><g id="elqdlulffqv"><polygon points="153.31 247.59 135.62 247.59 153.31 246.95 153.31 247.59" style="opacity: 0.1; isolation: isolate; transform-origin: 144.465px 247.27px;" class="animable" id="ely4sgxtzv71g"></polygon></g><g id="elaujzg91gcon"><polygon points="153.59 255.53 135.9 255.53 135.82 256.77 153.59 255.53" style="opacity: 0.1; isolation: isolate; transform-origin: 144.705px 256.15px;" class="animable" id="elobim8svhqbn"></polygon></g><g id="elqt9q7w567u"><polygon points="156.77 254.16 139.08 254.16 156.77 254.78 156.77 254.16" style="opacity: 0.1; isolation: isolate; transform-origin: 147.925px 254.47px;" class="animable" id="el8w4t832ug3"></polygon></g><g id="eltdncf7i9wk"><polygon points="153.59 259.62 135.9 259.62 153.59 258.96 153.59 259.62" style="opacity: 0.1; isolation: isolate; transform-origin: 144.745px 259.29px;" class="animable" id="elhulhvyinod4"></polygon></g><g id="el1oeoz9rxm4ui"><polygon points="153.91 261.08 136.22 261.08 136.22 261.75 153.91 261.08" style="opacity: 0.1; isolation: isolate; transform-origin: 145.065px 261.415px;" class="animable" id="ell6fc10390q"></polygon></g><g id="elb8jx9hmp27m"><polygon points="158.35 250.16 140.66 250.16 158.35 249.6 158.35 250.16" style="opacity: 0.1; isolation: isolate; transform-origin: 149.505px 249.88px;" class="animable" id="elzyihn91h5us"></polygon></g><g id="els9qlyv40uvk"><polygon points="153.59 244.97 135.9 244.97 153.59 244.35 153.59 244.97" style="opacity: 0.1; isolation: isolate; transform-origin: 144.745px 244.66px;" class="animable" id="elnr5icpc01yo"></polygon></g><g id="eliqr0i61mrjm"><polygon points="115.3 245.93 133.24 245.93 115.3 246.48 115.3 245.93" style="opacity: 0.1; isolation: isolate; transform-origin: 124.27px 246.205px;" class="animable" id="eloyvl3f11n9"></polygon></g><g id="elwte57d3g14m"><polygon points="135.62 247.59 115.3 247.59 133.72 248.19 135.62 247.59" style="opacity: 0.1; isolation: isolate; transform-origin: 125.46px 247.89px;" class="animable" id="elp42b8aycgg"></polygon></g><g id="el2fn104ax3a"><polygon points="140.66 250.16 115.3 250.73 115.3 250.16 140.66 250.16" style="opacity: 0.1; isolation: isolate; transform-origin: 127.98px 250.445px;" class="animable" id="elsdyadifm2sq"></polygon></g><g id="eletcebgapv1f"><polygon points="140.66 251.28 128.12 251.28 140.66 251.9 140.66 251.28" style="opacity: 0.1; isolation: isolate; transform-origin: 134.39px 251.59px;" class="animable" id="el1c9qnbxxylo"></polygon></g><g id="elp2h1q95ju7"><polygon points="117.71 254.3 135.9 254.16 117.71 253.75 117.71 254.3" style="opacity: 0.1; isolation: isolate; transform-origin: 126.805px 254.025px;" class="animable" id="elypd4h2q2t6l"></polygon></g><g id="ellikeuwb46i7"><polygon points="117.71 255.26 136.22 255.26 117.71 255.88 117.71 255.26" style="opacity: 0.1; isolation: isolate; transform-origin: 126.965px 255.57px;" class="animable" id="eldy6iz3h4yw6"></polygon></g><g id="elpjjw25z6h3"><polygon points="115.08 258.34 135.62 258.34 135.62 258.96 115.08 258.34" style="opacity: 0.1; isolation: isolate; transform-origin: 125.35px 258.65px;" class="animable" id="elsm4znn3asc"></polygon></g><g id="el1vgvuivd3yu"><polygon points="115.08 259.62 129.97 259.62 115.08 260.03 115.08 259.62" style="opacity: 0.1; isolation: isolate; transform-origin: 122.525px 259.825px;" class="animable" id="elmyme3snev3p"></polygon></g><polygon points="219.72 263.52 220.54 260.42 254.29 260.42 269.83 261.97 270.42 263.52 219.72 263.52" style="fill: rgb(38, 50, 56); transform-origin: 245.07px 261.97px;" id="elrbdcptf801j" class="animable"></polygon><g id="elgs0vnw0u71v"><polygon points="254.29 260.42 254.29 263.52 219.72 263.52 220.54 260.42 254.29 260.42" style="opacity: 0.4; isolation: isolate; transform-origin: 237.005px 261.97px;" class="animable" id="elk2c4u9mw8pl"></polygon></g><path d="M147.06,226l7.39,33.5a2.51,2.51,0,0,0,2.4,1.91h23.89a1.63,1.63,0,0,0,1.52-2.11l-7.38-33.24a2.3,2.3,0,0,0-2.4-1.64H148.59C147.5,224.45,146.82,224.94,147.06,226Z" style="fill: rgb(38, 50, 56); transform-origin: 164.672px 242.911px;" id="elzne5113kvhi" class="animable"></path><g id="elhvee9n7k96b"><path d="M148.43,226l7.38,33.5a2.51,2.51,0,0,0,2.4,1.91h22.53a1.64,1.64,0,0,0,1.52-2.11l-7.38-33.24a2.3,2.3,0,0,0-2.4-1.64H150C148.87,224.45,148.19,224.94,148.43,226Z" style="fill: rgb(255, 255, 255); opacity: 0.4; isolation: isolate; transform-origin: 165.355px 242.911px;" class="animable" id="elprjp55dtbfl"></path></g><path d="M158.41,259.23v3.11c0,.79.94,1.12,1.72,1.12h55.28c.79,0,1.75-.33,1.75-1.12v-3.11Z" style="fill: rgb(38, 50, 56); transform-origin: 187.785px 261.345px;" id="el46kvmq8peh2" class="animable"></path><g id="elhxsc6s11wva"><path d="M217.16,259.23v3.11c0,.79-.94,1.12-1.72,1.12H160.17c-.8,0-1.76-.33-1.76-1.12v-3.11Z" style="fill: rgb(255, 255, 255); opacity: 0.2; isolation: isolate; transform-origin: 187.785px 261.345px;" class="animable" id="eljb34yszlxu"></path></g><g id="el0jp82n64tio6"><path d="M217.16,259.23v3.11c0,.79-.94,1.12-1.72,1.12H190c-.8,0-1.75-.33-1.75-1.12v-3.11Z" style="opacity: 0.4; isolation: isolate; transform-origin: 202.705px 261.345px;" class="animable" id="el7dgvg8h1zy7"></path></g><polygon points="180.92 256.77 174.21 226.6 149.77 226.6 156.42 256.77 180.92 256.77" style="fill: #2C57B6; isolation: isolate; transform-origin: 165.345px 241.685px;" id="elagqmxm3izih" class="animable"></polygon><path d="M247.51,245.56a2.66,2.66,0,0,1-2.68,3h-51.7a3.32,3.32,0,0,1-3.24-3l-3.07-33.1a2.82,2.82,0,0,1,.06-1,2.65,2.65,0,0,1,2.62-2h51.7a3.32,3.32,0,0,1,3.24,3Z" style="fill: rgb(38, 50, 56); transform-origin: 217.166px 229.01px;" id="el60v92vjr5za" class="animable"></path><g id="eludqoaoags2b"><path d="M244.64,248.53H193.13a3.32,3.32,0,0,1-3.24-3l-3.07-33.1a2.82,2.82,0,0,1,.06-1H238.4a3.34,3.34,0,0,1,3.24,3l3.07,33.1A2.8,2.8,0,0,1,244.64,248.53Z" style="opacity: 0.4; isolation: isolate; transform-origin: 215.764px 229.98px;" class="animable" id="elqyhh6rw0lki"></path></g><polygon points="209.12 228.23 219.82 228.23 216.97 258.85 233.88 261.39 233.88 263.52 198.26 263.52 198.26 261.39 205.56 258.85 209.12 228.23" style="fill: rgb(38, 50, 56); transform-origin: 216.07px 245.875px;" id="elhhj241lqr1f" class="animable"></polygon><g id="el6sdsc50wja7"><polygon points="219.82 228.23 211.9 263.04 205.56 262.85 209.12 228.23 219.82 228.23" style="fill: rgb(255, 255, 255); opacity: 0.1; isolation: isolate; transform-origin: 212.69px 245.635px;" class="animable" id="elgrzlgqgnxqo"></polygon></g><polygon points="184.14 418.24 178.22 418.24 167.56 269.97 175.43 269.97 184.14 418.24" style="fill: rgb(38, 50, 56); transform-origin: 175.85px 344.105px;" id="el03uphprdxnem" class="animable"></polygon><g id="el15av0kycoas"><polygon points="184.15 418.24 178.22 418.24 168.09 277.33 167.56 270.2 175.43 270.2 175.85 277.33 184.15 418.24" style="fill: rgb(255, 255, 255); opacity: 0.1; isolation: isolate; transform-origin: 175.855px 344.22px;" class="animable" id="el39l597bp546"></polygon></g><g id="elk1b5nwz2ze"><polygon points="175.85 276.98 168.09 276.98 167.56 270.2 175.43 270.2 175.85 276.98" style="opacity: 0.2; isolation: isolate; transform-origin: 171.705px 273.59px;" class="animable" id="el5tl8tjy4ers"></polygon></g><polygon points="256.67 418.24 250.74 418.24 249.78 269.97 257.64 269.97 256.67 418.24" style="fill: rgb(38, 50, 56); transform-origin: 253.71px 344.105px;" id="elekng2o6a90r" class="animable"></polygon><g id="eln26rd7lvx0b"><polygon points="257.64 270.2 257.49 294.13 256.68 418.24 250.74 418.24 249.93 294.13 249.78 270.2 257.64 270.2" style="fill: rgb(255, 255, 255); opacity: 0.1; isolation: isolate; transform-origin: 253.71px 344.22px;" class="animable" id="elvxbmdcgpv5"></polygon></g><g id="el96k1vzjwvbm"><polygon points="257.64 270.2 257.49 294.39 249.93 294.39 249.78 270.2 257.64 270.2" style="opacity: 0.2; isolation: isolate; transform-origin: 253.71px 282.295px;" class="animable" id="el0mifgtnn07ss"></polygon></g><polygon points="319.6 418.24 313.68 418.24 303.02 269.97 310.89 269.97 319.6 418.24" style="fill: rgb(38, 50, 56); transform-origin: 311.31px 344.105px;" id="elguj0hv3berl" class="animable"></polygon><g id="el3jbk59bp5ac"><polygon points="319.61 418.24 313.68 418.24 303.54 277.33 303.02 270.2 310.89 270.2 311.31 277.33 319.61 418.24" style="fill: rgb(255, 255, 255); opacity: 0.1; isolation: isolate; transform-origin: 311.315px 344.22px;" class="animable" id="eljfvxj2ykep"></polygon></g><g id="el78xroyrqcjs"><polygon points="311.31 276.98 303.54 276.98 303.02 270.2 310.89 270.2 311.31 276.98" style="opacity: 0.2; isolation: isolate; transform-origin: 307.165px 273.59px;" class="animable" id="elj3crbzhhkik"></polygon></g><polygon points="116.33 418.24 110.41 418.24 119.12 269.97 126.98 269.97 116.33 418.24" style="fill: rgb(38, 50, 56); transform-origin: 118.695px 344.105px;" id="elnvbhzs906ki" class="animable"></polygon><g id="elu2ljxebp0d"><polygon points="126.98 270.2 126.46 277.33 116.33 418.24 110.41 418.24 118.69 277.33 119.12 270.2 126.98 270.2" style="fill: rgb(255, 255, 255); opacity: 0.1; isolation: isolate; transform-origin: 118.695px 344.22px;" class="animable" id="el8xymuz6idrf"></polygon></g><g id="elscu14h4ratl"><polygon points="119.12 270.2 126.98 270.2 126.46 276.98 118.69 276.98 119.12 270.2" style="opacity: 0.2; isolation: isolate; transform-origin: 122.835px 273.59px;" class="animable" id="ela8o5314bpj"></polygon></g><path d="M112.89,266.25H317.12a0,0,0,0,1,0,0v5.26a2.16,2.16,0,0,1-2.16,2.16H115a2.16,2.16,0,0,1-2.16-2.16v-5.26A0,0,0,0,1,112.89,266.25Z" style="fill: #2C57B6; transform-origin: 214.98px 269.96px;" id="elmgvyvl8rmwc" class="animable"></path><g id="elysoj07elv4p"><path d="M112.89,266.25H317.12a0,0,0,0,1,0,0v5.26a2.16,2.16,0,0,1-2.16,2.16H115a2.16,2.16,0,0,1-2.16-2.16v-5.26A0,0,0,0,1,112.89,266.25Z" style="fill: rgb(255, 255, 255); opacity: 0.4; isolation: isolate; transform-origin: 214.98px 269.96px;" class="animable" id="eljpwvp387a5k"></path></g><g id="el38k22orgk3p"><rect x="112.89" y="266.25" width="204.24" height="3.71" style="opacity: 0.2; isolation: isolate; transform-origin: 215.01px 268.105px;" class="animable" id="elz2kue8spjy"></rect></g><path d="M320.8,267.22H109.21a2.1,2.1,0,0,1-2.09-2.09h0a2.09,2.09,0,0,1,2.09-2.09H320.8a2.09,2.09,0,0,1,2.09,2.09h0A2.1,2.1,0,0,1,320.8,267.22Z" style="fill: #2C57B6; transform-origin: 215.005px 265.13px;" id="elzgpjtp60lle" class="animable"></path><g id="el3m3zz5lvh5f"><path d="M320.8,267.22H109.21a2.1,2.1,0,0,1-2.09-2.09h0a2.09,2.09,0,0,1,2.09-2.09H320.8a2.09,2.09,0,0,1,2.09,2.09h0A2.1,2.1,0,0,1,320.8,267.22Z" style="fill: rgb(255, 255, 255); opacity: 0.4; isolation: isolate; transform-origin: 215.005px 265.13px;" class="animable" id="el0wvjjnmnvhq"></path></g><polygon points="269.62 253.6 269.62 254.3 267.21 255.26 269.62 255.26 269.62 256.91 267.54 256.91 265.34 258.34 266.99 258.34 264.8 259.62 266.99 259.62 266.99 262.89 305.82 262.9 305.82 261.08 307.28 259.62 305.49 259.62 305.49 255.53 308.68 255.53 308.68 254.16 310.26 254.16 310.26 253.6 269.62 253.6" style="fill: #2C57B6; transform-origin: 287.53px 258.25px;" id="elog9p66322j" class="animable"></polygon><g id="elg56uhwmaubi"><polygon points="269.62 253.6 269.62 254.3 267.21 255.26 269.62 255.26 269.62 256.91 267.54 256.91 265.34 258.34 266.99 258.34 264.8 259.62 266.99 259.62 266.99 262.89 305.82 262.9 305.82 261.08 307.28 259.62 305.49 259.62 305.49 255.53 308.68 255.53 308.68 254.16 310.26 254.16 310.26 253.6 269.62 253.6" style="fill: rgb(255, 255, 255); opacity: 0.9; isolation: isolate; transform-origin: 287.53px 258.25px;" class="animable" id="el48neibklk9v"></polygon></g><g id="eltw96svf64i8"><polygon points="269.62 253.6 269.62 254.3 267.21 255.26 269.62 255.26 269.62 256.91 267.54 256.91 265.34 258.34 266.99 258.34 264.8 259.62 266.99 259.62 266.99 262.89 288.13 262.9 288.13 261.08 289.59 259.62 287.8 259.62 287.8 255.53 290.99 255.53 290.99 254.16 292.57 254.16 292.57 253.6 269.62 253.6" style="opacity: 0.1; isolation: isolate; transform-origin: 278.685px 258.25px;" class="animable" id="elyhmlwozgj1j"></polygon></g><g id="el2zn734eonjr"><polygon points="305.49 255.53 287.8 255.53 287.73 256.77 305.49 255.53" style="opacity: 0.1; isolation: isolate; transform-origin: 296.61px 256.15px;" class="animable" id="eli8yayx5k4xf"></polygon></g><g id="elw2ov2ndwsfl"><polygon points="308.68 254.16 290.99 254.16 308.68 254.78 308.68 254.16" style="opacity: 0.1; isolation: isolate; transform-origin: 299.835px 254.47px;" class="animable" id="el562j8w9d52a"></polygon></g><g id="elg5n3i6de8d"><polygon points="305.49 259.62 287.8 259.62 305.49 258.96 305.49 259.62" style="opacity: 0.1; isolation: isolate; transform-origin: 296.645px 259.29px;" class="animable" id="elbyiroxxudi8"></polygon></g><g id="eladunudvj2e"><polygon points="305.82 261.08 288.13 261.08 288.13 261.75 305.82 261.08" style="opacity: 0.1; isolation: isolate; transform-origin: 296.975px 261.415px;" class="animable" id="el8jcmx9u27vl"></polygon></g><g id="elsrfninc74v9"><polygon points="269.62 254.3 287.8 254.16 269.62 253.75 269.62 254.3" style="opacity: 0.1; isolation: isolate; transform-origin: 278.71px 254.025px;" class="animable" id="eld0pm64zlqn8"></polygon></g><g id="elsy110p5qnv9"><polygon points="269.62 255.26 288.13 255.26 269.62 255.88 269.62 255.26" style="opacity: 0.1; isolation: isolate; transform-origin: 278.875px 255.57px;" class="animable" id="elizu1czkbstm"></polygon></g><g id="el48ui3gmialu"><polygon points="266.99 258.34 287.53 258.34 287.53 258.96 266.99 258.34" style="opacity: 0.1; isolation: isolate; transform-origin: 277.26px 258.65px;" class="animable" id="el8ppyjzf666t"></polygon></g><g id="el8ke7zt85j14"><polygon points="266.99 259.62 281.87 259.62 266.99 260.03 266.99 259.62" style="opacity: 0.1; isolation: isolate; transform-origin: 274.43px 259.825px;" class="animable" id="elchfwc6ecvtp"></polygon></g></g><defs>     <filter id="active" height="200%">         <feMorphology in="SourceAlpha" result="DILATED" operator="dilate" radius="2"></feMorphology>                <feFlood flood-color="#32DFEC" flood-opacity="1" result="PINK"></feFlood>        <feComposite in="PINK" in2="DILATED" operator="in" result="OUTLINE"></feComposite>        <feMerge>            <feMergeNode in="OUTLINE"></feMergeNode>            <feMergeNode in="SourceGraphic"></feMergeNode>        </feMerge>    </filter>    <filter id="hover" height="200%">        <feMorphology in="SourceAlpha" result="DILATED" operator="dilate" radius="2"></feMorphology>                <feFlood flood-color="#ff0000" flood-opacity="0.5" result="PINK"></feFlood>        <feComposite in="PINK" in2="DILATED" operator="in" result="OUTLINE"></feComposite>        <feMerge>            <feMergeNode in="OUTLINE"></feMergeNode>            <feMergeNode in="SourceGraphic"></feMergeNode>        </feMerge>            <feColorMatrix type="matrix" values="0   0   0   0   0                0   1   0   0   0                0   0   0   0   0                0   0   0   1   0 "></feColorMatrix>    </filter></defs></svg>